<?xml version="1.0" encoding="UTF-8" standalone="no"?>

<svg
   width="2180.1174"
   height="1074.2336"
   viewBox="0 0 436.02349 214.84673"
   version="1.1"
   id="svg1"
   xmlns="http://www.w3.org/2000/svg"
   xmlns:svg="http://www.w3.org/2000/svg">
  <defs
     id="defs1" />
  <g
     id="layer1"
     transform="translate(-80.681533,-188.54407)">
    <path
       id="path1"
       style="opacity:1;fill:#00BFFF;fill-opacity:1;stroke-width:0.8604"
       d="m 205.95273,189.02031 c -16.52007,-0.8367 -37.84437,-2.29326 -43.51093,12.81758 -7.04185,18.7783 3.77739,28.60264 11.33281,30.76133 7.55542,2.15869 7.55547,-7.55547 7.55547,-7.55547 0,0 -14.57108,-14.03181 -2.1586,-23.20625 12.41248,-9.17444 22.12657,0.53984 22.12657,0.53984 0,0 -26.83821,91.6941 -44.1961,136.38907 -5.39852,13.90067 -17.66494,26.3021 -32.2582,25.65351 -16.6114,-0.73828 -20.12436,-14.34865 -20.68672,-22.58327 -0.96726,-14.16357 9.17441,-27.74684 13.4918,-31.52454 4.31738,-3.77772 12.95207,-4.31749 14.57109,2.15859 1.61902,6.47608 -2.15893,5.93618 -3.23828,9.17422 -1.07935,3.23804 2.15899,4.31758 2.15898,4.31758 0,0 4.85711,-0.53974 7.55547,-2.69844 2.69837,-2.15868 6.12558,-6.39822 6.60683,-14.03164 0.87599,-13.89479 -10.38456,-17.2693 -19.01933,-17.80898 -8.63476,-0.53968 -23.20598,1.07931 -33.459762,13.49179 -10.253786,12.41248 -20.191341,47.36031 -2.158594,67.99883 16.579206,18.97494 41.015056,14.57106 49.110156,10.79336 8.09509,-3.77772 17.38511,-12.07599 24.28516,-24.28515 6.90005,-12.20916 20.50781,-49.11016 20.50781,-49.11016 l 44.79258,-1.07969 c 0,0 9.07964,51.17056 8.63476,56.12617 -0.31613,3.52142 -1.61882,7.55527 -4.31718,8.09493 -2.69836,0.53968 -8.63477,2.69843 -8.63477,2.69843 -0.88514,1.09823 -1.00964,3.12748 0,4.31758 h 53.70664 c 1.16419,-0.93637 1.22457,-4.51628 0.22376,-5.20607 -1.08698,-0.94443 -3.39634,-1.78003 -5.89954,-2.88924 -2.65705,-1.17738 -4.31754,-7.55516 -5.39688,-10.25352 -1.07936,-2.69838 -32.15166,-146.9781 -32.38046,-154.88632 -0.13141,-4.54219 5.11888,-8.36967 7.30305,-11.05279 1.54499,-1.89794 1.3968,-3.91385 0.26944,-4.59795 -0.9295,-0.56403 -26.18848,-2.01996 -36.91703,-2.56333 z m 81.23008,5.20938 c -0.24137,0.002 -0.44776,0.019 -0.6164,0.0527 -2.69836,0.53967 -4.85698,5.93629 -2.1586,7.01563 2.69836,1.07934 13.17533,8.4768 14.25469,11.71484 1.07934,3.23804 -0.76297,148.5679 -3.46133,154.5043 -2.69838,5.9364 -9.71434,5.93645 -11.87305,7.55547 -2.15868,1.61902 -1.07901,4.3173 1.07969,5.93632 2.15868,1.61902 50.18944,1.07935 52.88782,0.53967 2.69836,-0.53966 2.2663,-6.35282 -0.53972,-7.55539 -3.77772,-1.61901 -10.79353,-5.39677 -12.41255,-10.25381 -1.619,-4.85706 -0.92102,-146.7253 1.77734,-152.66172 2.69836,-5.9364 13.87305,-10.31953 13.87305,-10.31953 0.23955,-1.94143 -0.48266,-4.54961 -2.69805,-5.39648 0,0 -16.50649,-0.89426 -25.68093,-0.89426 -8.60103,0 -20.8113,-0.26742 -24.43196,-0.23777 z m 101.29265,1.1528 c -5.12522,0.82004 -20.22519,1.52646 -25.94929,1.14485 -5.72408,-0.38161 -12.59317,-1.5265 -14.88281,-0.76328 -2.28964,0.76321 -0.76326,3.05284 -0.38164,4.19766 0,0 13.35639,6.86912 14.88281,11.0668 1.52642,4.19766 1.9081,145.01027 0.76328,150.73437 -1.14482,5.72408 -5.34282,10.68495 -8.01406,12.59297 -2.67124,1.90804 -7.63203,1.14492 -7.63203,1.14492 0,0 -1.52636,4.19776 0.76328,5.34258 2.28964,1.14482 20.98823,-0.38162 29.00195,0 8.01374,0.3816 24.04122,1.14447 26.33086,0.38125 2.28962,-0.76322 2.67138,-4.19739 1.52657,-5.34219 -1.14482,-1.14482 -3.81588,-1.14502 -6.86876,-2.28984 -3.05286,-1.14482 -6.86924,-4.96085 -8.01406,-8.39531 -1.14482,-3.43446 -0.76289,-67.54413 -0.76289,-67.54415 0,0 1.52609,-4.57923 4.96055,-3.81601 3.43444,0.76322 14.51297,5.82744 17.93555,10.30312 4.96088,6.48731 9.92193,15.64574 10.68515,29.00196 0.7632,13.35622 8.41941,36.33848 14.88242,44.64804 6.67812,8.58614 14.11974,19.46201 38.16094,18.31719 24.0412,-1.14482 29.63032,-23.72495 29.63032,-23.72494 0,0 1.72829,-4.71424 1.05623,-9.38637 -1.27974,-8.89666 -5.91351,-15.4967 -9.69827,-16.11603 -2.33196,-0.3816 -5.91619,-0.20892 -5.72408,1.90801 0.28705,3.16306 5.21663,7.59829 5.34244,11.82988 0.10604,3.56638 -1.07924,7.4742 -3.05273,10.30351 -2.18315,3.12989 -7.6324,7.63193 -16.02774,6.48711 -8.39534,-1.14482 -13.35597,-4.57933 -19.08007,-13.73789 -5.72409,-9.15854 -11.03519,-41.86527 -12.21133,-46.17422 -1.66134,-6.08654 -7.63234,-14.50114 -11.0668,-18.69882 -3.43446,-4.19766 -12.97461,-9.92149 -12.97461,-9.92149 0,0 7.63203,-3.43452 11.82969,-4.96094 4.19768,-1.52644 16.79082,-9.92166 23.27812,-20.60664 6.48732,-10.68498 5.72402,-25.56765 3.43438,-35.10781 -4.44834,-18.53474 -16.34888,-26.43469 -24.8043,-29.76562 -15.6279,-6.97296 -30.81241,-5.52698 -47.31907,-3.05267 z m 19.0597,10.67493 c 6.93459,-0.40337 13.99665,2.99136 17.57422,7.64219 3.81605,4.96088 9.54017,16.02743 8.77695,30.14687 -0.76322,14.11944 -2.28938,26.33078 -14.50078,33.96289 -12.2114,7.63215 -23.27798,5.72422 -25.94922,5.72422 -2.67124,0 -4.25959,-4.65224 -4.19766,-7.63203 0.32345,-15.563 -0.71048,-39.54098 3.43438,-61.43867 3.03196,-5.39878 7.92752,-8.0021 14.86211,-8.40547 z m -199.22149,11.43086 18.88867,79.33203 -42.09453,1.0793 z" />
  </g>
</svg>
