<?xml version="1.0" encoding="UTF-8" standalone="no"?>
<!-- Created with Inkscape (http://www.inkscape.org/) -->

<svg
   width="393.18741mm"
   height="188.36783mm"
   viewBox="0 0 393.1874 188.36783"
   version="1.1"
   id="svg1"
   xml:space="preserve"
   xmlns="http://www.w3.org/2000/svg"
   xmlns:svg="http://www.w3.org/2000/svg"><defs
     id="defs1" /><g
     id="g3"
     transform="translate(89.295113,-39.289911)"><path
       id="path3"
       style="display:inline;fill:#000000;fill-opacity:1;stroke-width:4.422"
       d="m 7.511898,39.289911 c -7.91818565,0 -12.7698654,0.507063 -13.9929443,1.462443 -1.0297479,0.804347 -6.0852717,13.308892 -11.2344567,27.787452 -5.149187,14.478575 -14.190976,39.750344 -20.09283,56.159364 -5.901852,16.40905 -15.42972,43.26018 -21.172868,59.66922 -5.988436,17.10981 -11.311291,30.48085 -12.480375,31.35003 -1.121196,0.83364 -5.592284,2.59614 -9.935828,3.91656 -5.794973,1.76164 -7.897709,2.94149 -7.897709,4.43177 0,1.1171 0.351382,2.38173 0.780314,2.81068 1.231966,1.23202 54.583209,0.879 56.549003,-0.37414 2.235316,-1.42498 0.225394,-5.1221 -3.050459,-5.61103 -5.336944,-0.79664 -19.179192,-4.1641 -19.179192,-4.66586 0,-3.83657 20.937348,-61.12697 24.041944,-70.76002 1.503566,-4.66532 6.150876,-18.22275 10.327535,-30.12736 4.176658,-11.90462 8.550349,-24.664669 9.719303,-28.355896 1.1689519,-3.691249 2.4118082,-6.718654 2.7615887,-6.727754 0.3496462,-0.0089 1.217333,1.958729 1.9285645,4.371826 0.7112339,2.413063 6.01384581,17.812644 11.7832601,34.221684 5.7694597,16.40902 10.8596787,31.01942 11.3119707,32.46727 l 0.822689,2.6324 4.033862,11.70006 4.852417,13.74748 c 2.668626,7.56103 6.72433,18.89437 9.012887,25.18554 l 4.160986,11.43858 -3.07268,1.1684 c -1.69003,0.64256 -5.504471,1.68552 -8.476486,2.31769 -11.084743,2.3578 -10.840776,2.24169 -10.452075,4.97541 l 0.368453,2.59105 40.102462,0.30748 c 35.058869,0.26918 40.189348,0.0838 40.788208,-1.47691 1.079538,-2.81317 -1.33952,-4.7206 -8.885246,-7.00526 l -6.996472,-2.11822 -2.526461,-7.72356 C 80.021738,204.80834 75.46658,192.1191 71.288367,180.85801 67.110119,169.59689 60.114234,150.38 55.742029,138.15364 39.436644,92.55768 23.244989,47.924995 21.468152,43.67724 l -1.83503,-4.387329 z M 159.53621,99.462466 c -0.83825,-0.32167 -13.07464,2.274454 -27.19162,5.769154 -24.40108,6.04066 -25.6848,6.49696 -26.02219,9.24285 -0.3335,2.71395 0.0642,2.93551 6.5841,3.67316 11.48574,1.29948 10.80871,-2.07865 10.45672,52.16529 l -0.30592,47.15526 -5.26479,1.45883 c -2.89575,0.80242 -6.71311,1.78881 -8.48269,2.19211 -3.05949,0.69713 -4.37986,3.81603 -2.43758,5.75831 0.42901,0.42889 16.42276,0.78031 35.5415,0.78031 26.8661,0 35.04437,-0.34109 36.00762,-1.50172 2.21603,-2.67023 -0.57544,-4.78617 -8.78602,-6.65902 l -7.96851,-1.81746 -0.30334,-58.81605 c -0.24248,-47.02419 -0.60873,-58.933454 -1.82728,-59.401024 z m 123.25088,0.113688 c -4.98708,-0.01956 -10.19094,1.305866 -14.76965,4.135666 -4.90011,3.02843 -16.11207,15.14172 -19.48821,21.05453 -1.44284,2.52695 -3.098,4.59733 -3.67781,4.60333 -0.5942,0.005 -0.79719,-4.96962 -0.46509,-11.39827 0.32412,-6.27405 0.25971,-12.98696 -0.14315,-14.91743 -0.92848,-4.448938 -2.17186,-4.414043 -20.56722,0.57567 -7.7219,2.09455 -18.51489,4.71735 -23.98458,5.82859 -9.11071,1.85097 -9.97464,2.26761 -10.29963,4.96197 -0.32844,2.72204 0.093,3.00019 5.66477,3.73931 4.06191,0.53883 6.94117,1.71933 8.85114,3.62923 l 2.83032,2.83084 -0.30592,46.49432 -0.30593,46.49483 -8.11785,2.08566 c -9.09283,2.33633 -10.4256,3.19673 -9.33896,6.02858 0.68871,1.79482 4.04091,1.93998 38.35528,1.65829 l 37.6008,-0.30851 0.36846,-2.59105 c 0.27304,-1.92042 -0.33256,-2.73386 -2.33991,-3.14245 -1.48963,-0.30309 -5.86765,-1.243 -9.72861,-2.08876 l -7.01972,-1.53789 -0.30955,-36.12699 -0.30954,-36.127 2.86959,-6.26783 c 3.69445,-8.06974 8.38959,-14.186 12.53516,-16.32975 3.23588,-1.67332 3.32374,-1.62852 5.60689,2.84685 2.6639,5.22166 8.29966,10.3595 12.52688,11.42049 1.59744,0.40106 5.30267,0.45848 8.23361,0.12816 12.95832,-1.4606 20.58014,-15.2714 14.96188,-27.11101 -3.21153,-6.76782 -10.92167,-10.536777 -19.23345,-10.569376 z" /></g><g
     id="layer3"
     transform="translate(-6.606315,-41.282751)"><circle
       style="opacity:0.8;fill:#aae6f7;stroke-width:1.13824"
       id="path2"
       cx="237.94518"
       cy="61.959763"
       r="20.462824" /></g></svg>
